<?xml version="1.0" encoding="UTF-8"?>
<svg width="13px" height="14px" viewBox="0 0 13 14" version="1.1" xmlns="http://www.w3.org/2000/svg" xmlns:xlink="http://www.w3.org/1999/xlink">
    <!-- Generator: Sketch 63.1 (92452) - https://sketch.com -->
    <title>Shape</title>
    <desc>Created with Sketch.</desc>
    <g id="Page-1" stroke="none" stroke-width="1" fill="none" fill-rule="evenodd">
        <g id="meny" transform="translate(-26.000000, -27.000000)" fill="#FFFFFF" fill-rule="nonzero">
            <g id="Hamburger_icon" transform="translate(26.000000, 27.000000)">
                <path d="M2.19675016,13.2003061 L12.5003061,2.89675016 C12.9742697,2.42278659 12.9787952,1.65797989 12.5104076,1.18959236 C12.0420201,0.721204828 11.2772134,0.725730311 10.8032498,1.19969389 L0.499693886,11.5032498 C0.0257303125,11.9772134 0.0212048291,12.7420201 0.489592361,13.2104076 C0.957979893,13.6787952 1.72278659,13.6742697 2.19675016,13.2003061 Z M12.5003061,11.3032498 L2.19675016,0.999693885 C1.72278659,0.525730311 0.957979893,0.521204828 0.489592361,0.98959236 C0.0212048291,1.45797989 0.0257303125,2.22278659 0.499693886,2.69675016 L10.8032498,13.0003061 C11.2772134,13.4742697 12.0420201,13.4787952 12.5104076,13.0104076 C12.9787952,12.5420201 12.9742697,11.7772134 12.5003061,11.3032498 Z" id="Shape"></path>
            </g>
        </g>
    </g>
</svg>