<?xml version="1.0" encoding="UTF-8"?>
<svg width="19px" height="16px" viewBox="0 0 19 16" version="1.1" xmlns="http://www.w3.org/2000/svg" xmlns:xlink="http://www.w3.org/1999/xlink">
    <!-- Generator: Sketch 63.1 (92452) - https://sketch.com -->
    <title>Combined Shape Copy 5</title>
    <desc>Created with Sketch.</desc>
    <g id="Symbols" stroke="none" stroke-width="1" fill="none" fill-rule="evenodd">
        <g id="bondförnuft-desktop" transform="translate(-317.000000, -399.000000)" fill="#1568B3" fill-rule="nonzero">
            <g id="Group-22">
                <g id="Group-20" transform="translate(310.000000, 128.000000)">
                    <g id="Group-2" transform="translate(9.000000, 193.000000)">
                        <path d="M4.79545115,93.6834873 L4.6781145,93.6834873 L4.53668605,93.6743148 L4.42055636,93.6592704 L4.2763427,93.6308345 L4.16563618,93.6010681 L3.97661496,93.5346472 L3.80281834,93.4532397 L3.67009812,93.3763365 L3.57877912,93.3154674 L3.47455799,93.2360505 L3.34159467,93.1171919 L3.26407638,93.0374997 L3.15813767,92.9120918 L-1.26291496,87.2278812 C-1.94105504,86.3559868 -1.78398614,85.0994356 -0.912091753,84.4212956 C-0.0837920887,83.7770625 1.09166035,83.8866055 1.7885552,84.6467109 L1.89449391,84.7721188 L4.839,88.558 L13.3472866,78.9870618 C14.0811227,78.1614963 15.3452674,78.0871348 16.1708329,78.8209708 C16.9529477,79.5161839 17.0608515,80.6873527 16.4460847,81.5106613 L16.3369239,81.6445172 L6.18944618,93.0592676 L6.0641653,93.1803716 L5.95340038,93.2721048 L5.87838279,93.3264922 L5.78979573,93.3847836 C5.76137278,93.4028253 5.73224688,93.4198611 5.70278415,93.4361056 C5.418199,93.5931925 5.10679879,93.6746119 4.79545115,93.6834873 Z" id="Combined-Shape-Copy-5"></path>
                    </g>
                </g>
            </g>
        </g>
    </g>
</svg>