<?xml version="1.0" encoding="UTF-8"?>
<svg width="17px" height="23px" viewBox="0 0 17 23" version="1.1" xmlns="http://www.w3.org/2000/svg" xmlns:xlink="http://www.w3.org/1999/xlink">
    <!-- Generator: Sketch 63.1 (92452) - https://sketch.com -->
    <title>Group 6</title>
    <desc>Created with Sketch.</desc>
    <g id="Page-1" stroke="none" stroke-width="1" fill="none" fill-rule="evenodd">
        <g id="kundservice" transform="translate(-1324.000000, -40.000000)" fill="#FFFFFF">
            <g id="Group-34" transform="translate(1300.000000, 32.000000)">
                <g id="Group-6" transform="translate(24.000000, 8.000000)">
                    <path d="M14.7760846,20.5030846 C14.7760846,20.5809308 14.7132769,20.6437385 14.6363154,20.6437385 L1.78727692,20.6437385 C1.71031538,20.6437385 1.64750769,20.5809308 1.64750769,20.5030846 L1.64750769,11.5092 C1.64750769,11.4322385 1.71031538,11.3694308 1.78727692,11.3694308 L14.6363154,11.3694308 C14.7132769,11.3694308 14.7760846,11.4322385 14.7760846,11.5092 L14.7760846,20.5030846 Z M3.87939231,8.45816154 C3.87496923,7.89200769 3.87054615,7.3577 3.87054615,6.87558462 C3.87054615,4.51808462 5.78839231,2.60023846 8.14589231,2.60023846 C10.5033923,2.60023846 12.4212385,4.51808462 12.4212385,6.87558462 L12.4212385,9.72227692 L3.88823846,9.72227692 C3.88558462,9.29146923 3.88293077,8.86596923 3.87939231,8.45816154 L3.87939231,8.45816154 Z M14.6363154,9.72227692 L14.1373923,9.72227692 L14.1373923,6.87558462 C14.1373923,3.57154615 11.4499308,0.884084615 8.14589231,0.884084615 C4.84273846,0.884084615 2.15439231,3.57154615 2.15439231,6.87558462 C2.15439231,7.36212308 2.15881538,7.90173846 2.16412308,8.47143077 C2.16766154,8.87481538 2.17031538,9.29677692 2.17208462,9.72227692 L1.78727692,9.72227692 C0.8027,9.72227692 0.000353846151,10.5246231 0.000353846151,11.5092 L0.000353846151,20.5030846 C0.000353846151,21.4885462 0.8027,22.2908923 1.78727692,22.2908923 L14.6363154,22.2908923 C15.6217769,22.2908923 16.4232385,21.4885462 16.4232385,20.5030846 L16.4232385,11.5092 C16.4232385,10.5246231 15.6217769,9.72227692 14.6363154,9.72227692 L14.6363154,9.72227692 Z" id="Fill-1"></path>
                    <path d="M8.55909615,15.1685885 C8.55555769,15.1659346 8.55201923,15.1632808 8.54848077,15.1606269 L9.03059615,15.1606269 L8.55909615,15.1685885 Z M8.18578846,13.4577423 C7.24632692,13.4577423 6.48201923,14.22205 6.48201923,15.1606269 C6.48201923,15.8002038 6.84028846,16.3513192 7.36132692,16.6423577 L7.36132692,17.6021654 C7.36132692,18.0568577 7.73021154,18.4257423 8.18578846,18.4257423 C8.64048077,18.4257423 9.00936538,18.0568577 9.00936538,17.6021654 L9.00936538,16.6423577 C9.53040385,16.3513192 9.88867308,15.8002038 9.88867308,15.1606269 C9.88867308,14.22205 9.12436538,13.4577423 8.18578846,13.4577423 L8.18578846,13.4577423 Z" id="Fill-4"></path>
                </g>
            </g>
        </g>
    </g>
</svg>