<?xml version="1.0" encoding="UTF-8"?>
<svg width="20px" height="44px" viewBox="0 0 20 44" version="1.1" xmlns="http://www.w3.org/2000/svg" xmlns:xlink="http://www.w3.org/1999/xlink">
    <!-- Generator: Sketch 63.1 (92452) - https://sketch.com -->
    <title>Fill 1</title>
    <desc>Created with Sketch.</desc>
    <g id="Symbols" stroke="none" stroke-width="1" fill="none" fill-rule="evenodd">
        <g id="footer" transform="translate(-763.000000, -322.000000)" fill="#1568B3">
            <g id="Group-26" transform="translate(252.000000, 75.000000)">
                <g id="Group-13" transform="translate(0.000000, 71.000000)">
                    <g id="Group-10-Copy-2" transform="translate(418.000000, 0.000000)">
                        <g id="Group-3" transform="translate(93.000000, 176.000000)">
                            <path d="M2.18140902,2.83372218 C2.24193502,6.46820104 2.50340736,19.0869979 3.23819307,23.3528905 C3.97176826,27.6010134 8.20858865,38.5838209 9.43484552,41.7112734 L17.0829116,40.0894998 L14.4052411,31.7804272 L8.71095449,29.6362268 C8.35990366,29.5047316 8.10569444,29.2050174 8.03548427,28.8437019 L5.38565575,15.082911 C5.30697194,14.6718406 5.48249736,14.2548469 5.83475871,14.0155494 L10.6320499,10.7648943 L10.1199999,2.20349312 L2.18140902,2.83372218 Z M8.7593753,44 C8.3199565,44 7.91443226,43.7381943 7.75101204,43.3259392 C7.51496062,42.7383572 1.99498892,28.8721333 1.1028356,23.7059135 C0.216734876,18.5645712 0.00852541686,2.54940832 -3.76966459e-05,1.87060898 C-0.00721134457,1.31382766 0.428575895,0.847079076 0.996309827,0.802062715 L11.0484688,0.00361462106 C11.3414147,-0.0200782007 11.6270974,0.0735084453 11.8462016,0.260681737 C12.0665162,0.447855029 12.1996735,0.713214633 12.2166207,0.998713135 L12.8291439,11.2351968 C12.8509333,11.6048048 12.6754079,11.9578278 12.3643042,12.168694 L7.64448627,15.3672249 L10.0522108,27.8711116 L15.6702346,29.9845113 C15.9764962,30.1006061 16.2149687,30.3481961 16.3142313,30.6550181 L19.5063728,40.5598023 C19.5971618,40.8441161 19.5608462,41.1533075 19.4083207,41.4103746 C19.2557952,41.6686263 19.0003754,41.8510611 18.701377,41.913847 L8.9881636,43.9751225 C8.91190083,43.9917075 8.83442754,44 8.7593753,44 L8.7593753,44 Z" id="Fill-1"></path>
                        </g>
                    </g>
                </g>
            </g>
        </g>
    </g>
</svg>